name C:\Users\u0101727\Documents\MyRepositories\paper-ad\predictivesimulations_2d/Results/PredSim_2D/IK_c28.mot
datacolumns 11
datarows 38
range 0.48370019 0.75486545
endheader
time	pelvis_tilt	pelvis_tx	pelvis_ty	hip_flexion_l	hip_flexion_r	knee_angle_l	knee_angle_r	ankle_angle_l	ankle_angle_r	lumbar_extension	
          0.48370019	        -10.15688496	          0.65405283	          0.88355301	         -3.16128842	         25.75011172	        -19.78009650	        -38.61324985	          8.90899012	         11.71896707	          5.76315835	
          0.49102898	        -10.07635522	          0.66506581	          0.88901171	         -2.30380445	         24.34648745	        -22.10519249	        -37.27173515	          5.28559159	         10.06437971	          5.92586925	
          0.49835778	         -9.98753202	          0.67605458	          0.89499116	         -1.32366909	         22.90734376	        -24.39202006	        -35.81726513	          1.58499705	          8.14347606	          6.08628997	
          0.50568657	         -9.89505221	          0.68696568	          0.90131271	         -0.24901079	         21.45257700	        -26.50712615	        -34.27848080	         -1.76353148	          6.01933884	          6.24054299	
          0.51301536	         -9.80112229	          0.69776872	          0.90782641	          0.88059077	         20.02653230	        -28.49382327	        -32.72782548	         -4.79648373	          3.70813030	          6.38458576	
          0.52034415	         -9.70701000	          0.70845222	          0.91447673	          2.05770434	         18.65636702	        -30.34465056	        -31.21001799	         -7.53019223	          1.22985006	          6.51566645	
          0.52767294	         -9.61528515	          0.71902016	          0.92119420	          3.28106972	         17.33201551	        -32.06192327	        -29.70680354	         -9.97766610	         -1.36062461	          6.63417904	
          0.53500173	         -9.52839065	          0.72947389	          0.92788937	          4.54463848	         16.04675078	        -33.64437494	        -28.24883466	        -12.15222089	         -3.97714907	          6.73924890	
          0.54233052	         -9.45148135	          0.73975348	          0.93444161	          5.83699102	         14.85846394	        -35.05981006	        -26.80018615	        -14.06876292	         -6.18876759	          6.82400317	
          0.54965931	         -9.38977480	          0.74985797	          0.94060729	          7.15094823	         13.73484387	        -36.30948231	        -25.29489913	        -15.73916702	         -7.85480769	          6.88900597	
          0.55698810	         -9.34430658	          0.75982330	          0.94620451	          8.48395973	         12.61243278	        -37.41866715	        -23.75482350	        -17.17156699	         -9.22233873	          6.93720115	
          0.56431689	         -9.31506358	          0.76963081	          0.95122091	          9.83293104	         11.51394172	        -38.38389915	        -22.17621797	        -18.37490462	        -10.31528597	          6.96574284	
          0.57164568	         -9.30170831	          0.77928236	          0.95565615	         11.19505425	         10.44289967	        -39.20463610	        -20.56952296	        -19.35948527	        -11.13568653	          6.97475185	
          0.57897447	         -9.30351441	          0.78878324	          0.95951044	         12.56756509	          9.40178174	        -39.88118198	        -18.94846865	        -20.13433723	        -11.68704135	          6.96475363	
          0.58630327	         -9.31956186	          0.79814136	          0.96278413	         13.94631831	          8.39268853	        -40.41670096	        -17.32293466	        -20.70950065	        -11.97556372	          6.93663467	
          0.59363206	         -9.34875361	          0.80736605	          0.96547800	         15.32696393	          7.41740753	        -40.81563151	        -15.70257150	        -21.09456542	        -12.01323367	          6.89142388	
          0.60096085	         -9.38991524	          0.81646771	          0.96759325	         16.70530505	          6.47705937	        -41.08343256	        -14.09589953	        -21.29870556	        -11.81929020	          6.83030792	
          0.60828964	         -9.44176443	          0.82545744	          0.96913160	         18.07755691	          5.57224814	        -41.22675333	        -12.51125099	        -21.33170008	        -11.42192617	          6.75451009	
          0.61561843	         -9.50294943	          0.83434715	          0.97009514	         19.44031691	          4.70291013	        -41.25282604	        -10.95712029	        -21.20248818	        -10.85355058	          6.66535247	
          0.62294722	         -9.57203020	          0.84314921	          0.97048609	         20.79039297	          3.86870334	        -41.16871273	         -9.44249666	        -20.92050050	        -10.13826361	          6.56414984	
          0.63027601	         -9.64757688	          0.85187579	          0.97030669	         22.12447872	          3.06965975	        -40.98017729	         -7.97685570	        -20.49478630	         -9.29029467	          6.45219608	
          0.63760480	         -9.72812451	          0.86053920	          0.96955928	         23.43915750	          2.30610907	        -40.69285827	         -6.56970635	        -19.93434373	         -8.31934420	          6.33077735	
          0.64493359	         -9.81208556	          0.86915327	          0.96824637	         24.73081637	          1.57751992	        -40.31419334	         -5.22814338	        -19.24804810	         -7.23266530	          6.20133094	
          0.65226238	         -9.89773407	          0.87773350	          0.96637101	         25.99491170	          0.88337521	        -39.85435141	         -3.95893542	        -18.44447439	         -6.03701962	          6.06543691	
          0.65959117	         -9.98329089	          0.88629663	          0.96393723	         27.22524075	          0.22422296	        -39.32676775	         -2.77118961	        -17.53136830	         -4.73985059	          5.92477949	
          0.66691996	        -10.06701672	          0.89486111	          0.96095047	         28.41360951	         -0.39927488	        -38.74953129	         -1.67452294	        -16.51482863	         -3.34946831	          5.78124807	
          0.67424875	        -10.14727665	          0.90344683	          0.95741795	         29.54996253	         -0.98664994	        -38.14609074	         -0.67788497	        -15.39820902	         -1.87501131	          5.63694062	
          0.68157755	        -10.22254168	          0.91207317	          0.95334839	         30.62425382	         -1.53748785	        -37.54371166	          0.21043022	        -14.18093340	         -0.32648716	          5.49392514	
          0.68890634	        -10.29136837	          0.92075674	          0.94875123	         31.62890748	         -2.05126642	        -36.97093866	          0.98265921	        -12.85767381	          1.28521841	          5.35394453	
          0.69623513	        -10.35239833	          0.92951094	          0.94363605	         32.55926747	         -2.52732380	        -36.45687054	          1.63149167	        -11.41822804	          2.94838546	          5.21835623	
          0.70356392	        -10.40439189	          0.93834708	          0.93801295	         33.41196713	         -2.96488766	        -36.03225459	          2.14965895	         -9.84838059	          4.65050427	          5.08828661	
          0.71089271	        -10.44629634	          0.94727555	          0.93189293	         34.18395675	         -3.36441273	        -35.72956992	          2.52964964	         -8.13219255	          6.37842315	          4.96481206	
          0.71822150	        -10.47738516	          0.95630702	          0.92528910	         34.87026717	         -3.72851433	        -35.58399201	          2.76672486	         -6.25674512	          8.11871537	          4.84920556	
          0.72555029	        -10.49736957	          0.96545349	          0.91822065	         35.45949762	         -4.06047238	        -35.63647302	          2.85653770	         -4.21977360	          9.85700236	          4.74311489	
          0.73287908	        -10.50635910	          0.97472918	          0.91072265	         35.92517332	         -4.35837542	        -35.93919529	          2.77383815	         -2.03144376	         11.58957323	          4.64852718	
          0.74020787	        -10.50628989	          0.98416652	          0.90286028	         36.21620297	         -4.63961748	        -36.55002261	          2.49934870	          0.27048512	         13.31371487	          4.57132131	
          0.74753666	        -10.49983903	          0.99383748	          0.89479694	         36.24051225	         -4.93785111	        -37.57111786	          1.86252464	          2.56745148	         14.98950923	          4.52286294	
          0.75486545	        -10.49140036	          1.00363785	          0.88700211	         36.06041090	         -5.22241938	        -38.77002590	          0.90840189	          4.84040758	         16.62664415	          4.49411851	
